<?xml version="1.0" encoding="UTF-8"?>
<svg id="Layer_1" data-name="Layer 1" xmlns="http://www.w3.org/2000/svg" viewBox="0 0 1000 500">
  <rect width="1000" height="500" fill="none" stroke="#000" stroke-miterlimit="10"/>
  <g>
    <path d="M608.81,291.74c1.15-1.07,2.07-2.35,3.18-3.44-3.14,11.29-7.98,22.09-14.28,31.97-11.07,17.22-26.3,31.83-44.25,41.72-11.23,6.12-23.5,10.4-36.18,12.17-16.06,2.17-32.6,1.11-48.14-3.55-9.14-2.69-17.87-6.64-26.12-11.39,2.48-6.6,6.53-12.57,11.72-17.35,9.41-8.72,21.49-14.01,33.82-17.11,16.94-4.28,34.49-5.03,51.82-6.7,14.04-1.25,28.19-3.37,41.36-8.61,10.06-4.02,19.64-9.72,27.07-17.71h0Z" fill="#b5d331"/>
    <g>
      <path d="M488.29,191.43c-5.96,13.9-11.94,27.8-17.9,41.7,12.32-.1,24.64,0,36.96-.06-6.08-14.39-12.03-28.82-18.36-43.1-.26.47-.5.95-.7,1.45h0Z" fill="none"/>
      <path d="M581.74,309.45c-13.17,5.24-27.32,7.36-41.36,8.61-17.33,1.67-34.87,2.42-51.82,6.7-12.33,3.1-24.41,8.4-33.82,17.11-5.19,4.77-9.24,10.75-11.72,17.35,8.24,4.75,16.98,8.7,26.12,11.39,15.54,4.66,32.08,5.73,48.14,3.55,12.68-1.78,24.95-6.06,36.18-12.17,17.94-9.9,33.18-24.51,44.25-41.72,6.3-9.88,11.14-20.68,14.28-31.97-1.11,1.1-2.04,2.37-3.18,3.44-7.42,7.99-17,13.69-27.07,17.71h0Z" fill="none"/>
      <path d="M576.98,170.18c-22.16-19.47-51.91-30.08-81.4-28.9-24.44.71-48.55,9.45-67.75,24.58-19.26,15.01-33.68,36.28-39.95,59.92-4.65,17.35-5.38,35.76-2.02,53.41,4.86,26.9,20,51.5,40.9,68.95,5.04-11.54,14.46-20.61,24.89-27.37,12.72-8.09,27.34-12.78,42.12-15.36,17.69-3.21,35.75-2.93,53.57-4.96,13.93-1.55,27.84-4.95,40.28-11.56,10.17-5.44,19.49-13.37,24.51-23.94,3-6.04,3.98-12.93,3.33-19.61-2.46-28.78-16.78-56.2-38.49-75.16h0ZM536.76,233.1c11.59-.02,23.17-.02,34.76,0,0,8.3-.06,16.6.03,24.89-7.74.09-15.48-.03-23.22.07,3.38,7.22,6.52,14.55,10.28,21.58,1.56,2.53,2.95,5.33,5.3,7.25-.13,1.2-.3,2.4-.47,3.6-12.97.03-25.94-.03-38.91.03-.32-1.42-.64-2.84-.83-4.29,1.88-1.32,2.38-3.79,2.38-5.95-.07-3.08-1.05-6.06-2.17-8.9-1.8-4.5-3.81-8.91-5.75-13.35-19.37-.01-38.73.01-58.09-.01-1.94,4.1-3.73,8.27-5.46,12.46-1.35,3.33-2.64,6.84-2.39,10.5.04,2.07.78,4.18,2.43,5.51-.35,1.33-.59,2.67-.89,4.01-13.78-.03-27.56-.04-41.34,0,4.48-5.83,7.6-12.54,10.69-19.17,14.58-31.51,28.82-63.17,43.54-94.61.44-.78.31-1.63-.12-2.38-.04-.07-.1-.14-.14-.21l-1.72-2.02,1.35-4.68h.17c13.79.02,27.58,0,41.38,0,3.59,8.35,7.26,16.66,10.84,25.01,21.19.03,42.37.02,63.56,0,.03,8.25-.02,16.5.01,24.75-17.39-.03-34.79-.04-52.18,0,2.35,5.28,4.62,10.61,6.97,15.89v.02Z" fill="none"/>
      <path d="M634.33,240.54c-1.79-14.67-6.25-28.96-12.68-42.25-6.09-12.48-14.05-24.06-23.69-34.07-19.39-20.14-45.15-34.01-72.62-39.19-9.66-1.85-19.53-2.51-29.35-2.27-17.72.53-35.38,4.35-51.57,11.59-26.68,12.01-49.48,32.7-63.45,58.47-10.48,19.17-16.34,40.94-16.23,62.83-.11,7.62.34,15.25,1.6,22.77,4.44,29.14,18.74,56.66,39.99,77.09,20.52,19.78,47.06,33.51,75.33,37.72,22.91,3.53,46.66.19,68.04-8.6,16.23-6.62,31.2-16.34,43.74-28.58,13.15-12.79,23.64-28.29,30.83-45.16,9.49-22.02,12.86-46.56,10.06-70.35h0ZM597.71,320.26c-11.07,17.22-26.3,31.83-44.25,41.72-11.23,6.12-23.5,10.4-36.18,12.17-16.06,2.17-32.6,1.11-48.14-3.55-9.14-2.69-17.87-6.64-26.12-11.39,2.48-6.6,6.53-12.57,11.72-17.35,9.41-8.72,21.49-14.01,33.82-17.11,16.94-4.28,34.49-5.03,51.82-6.7,14.04-1.25,28.19-3.37,41.36-8.61,10.06-4.02,19.64-9.72,27.07-17.71,1.15-1.07,2.07-2.35,3.18-3.44-3.14,11.29-7.98,22.09-14.28,31.97h0ZM612.14,264.95c-5.02,10.57-14.34,18.51-24.51,23.94-12.44,6.61-26.35,10.01-40.28,11.56-17.82,2.03-35.88,1.76-53.57,4.96-14.78,2.57-29.4,7.26-42.12,15.36-10.43,6.75-19.85,15.83-24.89,27.37-20.9-17.45-36.05-42.05-40.9-68.95-3.36-17.65-2.63-36.05,2.02-53.41,6.27-23.64,20.68-44.91,39.95-59.92,19.2-15.13,43.32-23.87,67.75-24.58,29.49-1.18,59.24,9.43,81.4,28.9,21.72,18.96,36.04,46.38,38.49,75.16.65,6.68-.34,13.57-3.33,19.61h0Z" fill="#fff"/>
      <path d="M581.98,217.2c-.03-8.25.02-16.5-.01-24.75-21.19.03-42.37.04-63.56,0-3.58-8.35-7.25-16.66-10.84-25.01-13.79,0-27.58,0-41.38,0h-.17l-1.35,4.68,1.72,2.02c.05.07.1.14.14.21.43.75.56,1.6.12,2.38-14.72,31.44-28.96,63.1-43.54,94.61-3.1,6.63-6.21,13.33-10.69,19.17,13.78-.04,27.56-.03,41.34,0,.3-1.34.54-2.69.89-4.01-1.65-1.33-2.39-3.44-2.43-5.51-.25-3.66,1.04-7.17,2.39-10.5,1.73-4.19,3.53-8.36,5.46-12.46,19.36.03,38.73,0,58.09.01,1.94,4.44,3.95,8.85,5.75,13.35,1.13,2.84,2.1,5.82,2.17,8.9,0,2.16-.5,4.63-2.38,5.95.19,1.44.51,2.86.83,4.29,12.97-.06,25.94,0,38.91-.03.17-1.2.33-2.4.47-3.6-2.35-1.92-3.73-4.71-5.3-7.25-3.76-7.03-6.91-14.36-10.28-21.58,7.74-.1,15.48.03,23.22-.07-.08-8.3-.02-16.6-.03-24.89-11.59-.02-23.17-.02-34.76,0-2.35-5.28-4.61-10.61-6.97-15.89,17.39-.05,34.79-.03,52.18,0v-.02ZM470.39,233.13c5.96-13.9,11.94-27.8,17.9-41.7.21-.5.44-.98.7-1.45,6.32,14.28,12.28,28.72,18.36,43.1-12.32.07-24.64-.04-36.96.06h0Z" fill="#fff"/>
    </g>
  </g>
</svg>